# xmcd
#
# Track frame offsets:
#	183
#	16520
#	34038
#	53558
#	70068
#	89655
#	102545
#	115588
#	137020
#	150085
#	166673
#	182573
#	197138
#	214598
#	231633
#	251120
#	263215
#	280275
#	299273
#	318795
#
# Disc length: 4408 seconds
# Revision: 4
# Processed by: cddbd v1.5.2PL0 Copyright (c) Steve Scherf et al.
# Submitted via: dBpowerAMP V12.0
#
DISCID=11113614
DTITLE=Kenny Rogers - The Kenny Rogers Story
DYEAR=1985
DGENRE=Country
TTITLE0=Lucille
TTITLE1=Lady
TTITLE2=The Long Arm Of The Law
TTITLE3=You Decorated My Life
TTITLE4=Sweet Music Man
TTITLE5=Ruby Don't Take Your Love To Town
TTITLE6=Love Or Something Like It
TTITLE7=Through The Years
TTITLE8=You Are So Beautiful
TTITLE9=Don't Fall In Love With A Dreamer
TTITLE10=The Gambler
TTITLE11=Daytime Friends
TTITLE12=We've Got Tonight
TTITLE13=Love Lifted Me
TTITLE14=Coward Of The County
TTITLE15=Reube James
TTITLE16=Desperado
TTITLE17=She Believes In Me
TTITLE18=Something's Burning
TTITLE19=Blaze Of Glory
EXTD=
EXTT0=
EXTT1=
EXTT2=
EXTT3=
EXTT4=
EXTT5=
EXTT6=
EXTT7=
EXTT8=
EXTT9=
EXTT10=
EXTT11=
EXTT12=
EXTT13=
EXTT14=
EXTT15=
EXTT16=
EXTT17=
EXTT18=
EXTT19=
PLAYORDER=
